<svg width="31" height="23" viewBox="0 0 31 23" fill="none" xmlns="http://www.w3.org/2000/svg">
<path d="M21.15 1.87004L19.84 0.870043C19.6353 0.704259 19.3734 0.625968 19.1112 0.652183C18.8491 0.678397 18.6079 0.806998 18.44 1.01004L0.309998 21.83L0.589998 22.14L5.08 18C4.93036 17.9398 4.80655 17.8291 4.73008 17.6871C4.6536 17.5451 4.6293 17.3807 4.66139 17.2227C4.69348 17.0646 4.77994 16.9227 4.90574 16.8218C5.03153 16.7208 5.18873 16.6671 5.35 16.67C5.49543 16.67 5.63703 16.7166 5.75402 16.803C5.87101 16.8894 5.95722 17.011 6 17.15L11.92 11.66C12.0107 11.587 12.1236 11.5472 12.24 11.5472C12.3564 11.5472 12.4693 11.587 12.56 11.66L12.86 11.88C12.9615 11.9528 13.0865 11.9849 13.2105 11.9701C13.3345 11.9553 13.4485 11.8946 13.53 11.8L21.27 3.12004C21.3523 3.03387 21.415 2.931 21.454 2.81842C21.493 2.70584 21.5072 2.58619 21.4958 2.4676C21.4845 2.34901 21.4477 2.23427 21.388 2.13116C21.3283 2.02805 21.2472 1.93899 21.15 1.87004Z" fill="#303030"/>
<path d="M29.67 7.72998C25.7025 10.553 21.2579 12.6364 16.55 13.88C11.8775 15.0683 7.09624 15.7786 2.28003 16C2.37701 16.7102 2.55138 17.4077 2.80003 18.08C5.52003 20.54 26 16.34 30 11.48C30.85 10.47 29.67 7.72998 29.67 7.72998ZM5.35003 18C5.21554 18 5.08407 17.9601 4.97224 17.8854C4.86041 17.8107 4.77326 17.7045 4.72179 17.5802C4.67032 17.4559 4.65686 17.3192 4.68309 17.1873C4.70933 17.0554 4.7741 16.9342 4.8692 16.8391C4.9643 16.744 5.08546 16.6793 5.21737 16.653C5.34927 16.6268 5.486 16.6403 5.61025 16.6917C5.73451 16.7432 5.84071 16.8304 5.91543 16.9422C5.99015 17.054 6.03003 17.1855 6.03003 17.32C6.03138 17.4097 6.01471 17.4987 5.98101 17.5818C5.94732 17.6649 5.89728 17.7404 5.83387 17.8038C5.77045 17.8672 5.69495 17.9173 5.61184 17.951C5.52873 17.9847 5.4397 18.0013 5.35003 18Z" fill="#303030"/>
</svg>
